<svg xmlns="http://www.w3.org/2000/svg" width="41" height="40" fill="none"><path fill="#F48B9B" d="M40.094 20c0 11.046-8.954 20-20 20s-20-8.954-20-20 8.954-20 20-20 20 8.954 20 20Z"/><path fill="#182C61" fill-rule="evenodd" d="M23.605 21.127a1.5 1.5 0 0 0 2.001-2.234L24.594 20a140.145 140.145 0 0 0 1.011-1.108l-.001-.002-.003-.002-.005-.005-.013-.011a2.353 2.353 0 0 0-.12-.1 4.47 4.47 0 0 0-.285-.206 6.391 6.391 0 0 0-1.002-.541c-.87-.38-2.123-.725-3.782-.725-1.658 0-2.911.346-3.781.724a6.385 6.385 0 0 0-1.003.542 4.42 4.42 0 0 0-.405.306l-.012.011-.006.005-.002.002-.002.002L16.194 20l-1.012-1.107a1.5 1.5 0 0 0 2.004 2.232 3.41 3.41 0 0 1 .624-.35c.508-.221 1.355-.475 2.584-.475 1.23 0 2.076.254 2.584.475.257.112.433.218.532.284.05.033.08.057.092.066l.003.002ZM10.652 11.6a1.8 1.8 0 0 1 2.459-.659l2.424 1.4a1.8 1.8 0 1 1-1.8 3.118l-2.424-1.4a1.8 1.8 0 0 1-.66-2.459ZM29.537 11.6a1.8 1.8 0 0 1-.66 2.459l-2.424 1.4a1.8 1.8 0 1 1-1.8-3.118l2.425-1.4a1.8 1.8 0 0 1 2.459.659Z" clip-rule="evenodd"/><path fill="#F72585" fill-opacity=".2" d="M35.694 18.8a4.2 4.2 0 1 1-8.4 0 4.2 4.2 0 0 1 8.4 0ZM12.894 18.8a4.2 4.2 0 1 1-8.4 0 4.2 4.2 0 0 1 8.4 0Z"/></svg>