<svg xmlns="http://www.w3.org/2000/svg" fill="none" viewBox="0 0 48 48">
  <rect width="48" height="48" fill="#C4B3F4" rx="20"/>
  <path fill="#182C61" fill-rule="evenodd" d="M16.44 23.2805c0-.9941.8059-1.8 1.8-1.8h11.52c.9941 0 1.8.8059 1.8 1.8 0 .9941-.8059 1.8-1.8 1.8H18.24c-.9941 0-1.8-.8059-1.8-1.8Z" clip-rule="evenodd"/>
  <path fill="#182C61" d="M8.88021 12.4805c-1.19296 0-2.16.967-2.16 2.16 0 1.1929.96704 2.16 2.16 2.16h5.03999v.72c0 1.1929.967 2.16 2.16 2.16s2.16-.9671 2.16-2.16v-2.88c0-1.193-.967-2.16-2.16-2.16H8.88021Zm17.99999 0c-1.193 0-2.16.967-2.16 2.16 0 1.1929.967 2.16 2.16 2.16h5.04v.72c0 1.1929.967 2.16 2.16 2.16s2.16-.9671 2.16-2.16v-2.88c0-1.193-.967-2.16-2.16-2.16h-7.2Z"/>
  <path fill="#F72585" fill-opacity=".2" d="M42.7203 22.5595c0 2.7836-2.2564 5.04-5.04 5.04-2.7835 0-5.04-2.2564-5.04-5.04 0-2.7835 2.2565-5.04 5.04-5.04 2.7836 0 5.04 2.2565 5.04 5.04Zm-27.36 0c0 2.7836-2.2565 5.04-5.04 5.04-2.78355 0-5.04003-2.2564-5.04003-5.04 0-2.7835 2.25648-5.04 5.04003-5.04 2.7835 0 5.04 2.2565 5.04 5.04Z"/>
  <rect width="46.8" height="46.8" x=".6" y=".6" stroke="#000" stroke-opacity=".2" stroke-width="1.2" rx="19.4"/>
</svg>
