<svg xmlns="http://www.w3.org/2000/svg" width="41" height="40" fill="none"><path fill="#C4B3F4" d="M40.094 20c0 11.046-8.954 20-20 20s-20-8.954-20-20 8.954-20 20-20 20 8.954 20 20Z"/><path fill="#182C61" fill-rule="evenodd" d="M13.794 19.4a1.5 1.5 0 0 1 1.5-1.5h9.6a1.5 1.5 0 0 1 0 3h-9.6a1.5 1.5 0 0 1-1.5-1.5Z" clip-rule="evenodd"/><path fill="#182C61" d="M7.494 10.4a1.8 1.8 0 1 0 0 3.6h4.2v.6a1.8 1.8 0 0 0 3.6 0v-2.4a1.8 1.8 0 0 0-1.8-1.8h-6ZM22.494 10.4a1.8 1.8 0 0 0 0 3.6h4.2v.6a1.8 1.8 0 0 0 3.6 0v-2.4a1.8 1.8 0 0 0-1.8-1.8h-6Z"/><path fill="#F72585" fill-opacity=".2" d="M35.694 18.8a4.2 4.2 0 1 1-8.4 0 4.2 4.2 0 0 1 8.4 0ZM12.894 18.8a4.2 4.2 0 1 1-8.4 0 4.2 4.2 0 0 1 8.4 0Z"/></svg>