<svg xmlns="http://www.w3.org/2000/svg" width="41" height="40" fill="none"><path fill="#E9E0F9" d="M40.094 20c0 11.046-8.954 20-20 20-11.045 0-20-8.954-20-20s8.955-20 20-20c11.046 0 20 8.954 20 20Z"/><path fill="#A0C4FA" d="M39.894 22.075C39.964 21.393 40 20.7 40 20 40 8.954 31.046 0 20 0S0 8.954 0 20c0 .37.01.737.03 1.101 7.473-6.27 23.082-12.639 39.864.974Z"/><path fill="#182C61" fill-rule="evenodd" d="M23.258 21.128a1.5 1.5 0 0 0 2.001-2.235L24.247 20a136.24 136.24 0 0 0 1.011-1.108l-.001-.001-.003-.003-.005-.005-.013-.01a2.47 2.47 0 0 0-.121-.102 4.448 4.448 0 0 0-.284-.205 6.39 6.39 0 0 0-1.002-.541c-.87-.38-2.124-.725-3.782-.725s-2.912.346-3.782.725a6.4 6.4 0 0 0-1.002.54 4.442 4.442 0 0 0-.405.307l-.013.011-.005.005-.003.003c-.002.001-.002.002 1.01 1.109l-1.012-1.107a1.5 1.5 0 0 0 2.001 2.235l.003-.003a1.43 1.43 0 0 1 .092-.066c.1-.066.276-.172.532-.284.508-.22 1.355-.475 2.584-.475 1.23 0 2.076.254 2.584.475.256.112.433.218.532.284.05.034.08.057.092.066l.003.003ZM12.947 8c1.16 0 2.1.863 2.1 1.929v5.142c0 1.066-.94 1.929-2.1 1.929-1.16 0-2.1-.863-2.1-1.929V9.93c0-1.066.94-1.929 2.1-1.929ZM27.147 8c1.16 0 2.1.863 2.1 1.929v5.142c0 1.066-.94 1.929-2.1 1.929-1.16 0-2.1-.863-2.1-1.929V9.93c0-1.066.94-1.929 2.1-1.929Z" clip-rule="evenodd"/><path fill="#F72585" fill-opacity=".2" d="M35.647 18.8a4.2 4.2 0 1 1-8.4 0 4.2 4.2 0 0 1 8.4 0ZM12.847 18.8a4.2 4.2 0 1 1-8.4 0 4.2 4.2 0 0 1 8.4 0Z"/></svg>