<svg xmlns="http://www.w3.org/2000/svg" width="40" height="40" fill="none"><path fill="#F7D6E0" d="M40 20c0 11.046-8.954 20-20 20S0 31.046 0 20 8.954 0 20 0s20 8.954 20 20Z"/><path fill="#F72585" fill-opacity=".2" d="M35.6 18.8a4.2 4.2 0 1 1-8.4 0 4.2 4.2 0 0 1 8.4 0ZM12.8 18.8a4.2 4.2 0 1 1-8.4 0 4.2 4.2 0 0 1 8.4 0Z"/><path fill="#182C61" fill-rule="evenodd" d="M9.667 12.961c-.278-.955.338-1.937 1.376-2.193l2.507-.618c1.038-.256 2.105.311 2.383 1.266.279.956-.338 1.938-1.376 2.194l-2.507.617c-1.038.256-2.105-.31-2.383-1.266ZM24.067 11.416c.278-.955 1.345-1.522 2.383-1.266l2.507.618c1.038.256 1.654 1.238 1.376 2.193-.278.955-1.345 1.522-2.383 1.266l-2.507-.617c-1.038-.256-1.654-1.238-1.376-2.194ZM16.79 17.672a1.5 1.5 0 0 0-2.002 2.235L15.8 18.8a140.145 140.145 0 0 0-1.01 1.108v.001l.003.002.006.005.012.012a1.862 1.862 0 0 0 .121.1c.071.056.166.127.284.206.237.159.57.353 1.002.541.87.379 2.124.725 3.782.725s2.912-.346 3.782-.725a6.385 6.385 0 0 0 1.002-.541 4.442 4.442 0 0 0 .405-.306l.013-.012.005-.005.003-.002.001-.001s.001-.001-1.011-1.108l1.012 1.107a1.5 1.5 0 0 0-2.001-2.235l-.003.002a1.46 1.46 0 0 1-.092.067 3.42 3.42 0 0 1-.532.284c-.508.22-1.355.475-2.584.475-1.23 0-2.076-.254-2.584-.476a3.42 3.42 0 0 1-.532-.283 1.493 1.493 0 0 1-.092-.067l-.003-.002Z" clip-rule="evenodd"/></svg>