<svg xmlns="http://www.w3.org/2000/svg" fill="none" viewBox="0 0 48 48">
  <rect width="48" height="48" fill="#FFF3B0" rx="20"/>
  <path fill="#182C61" fill-rule="evenodd" d="M36.487 11.1303c.7452.9315.5942 2.2908-.3373 3.036l-1.4917 1.1934 1.4917 1.1933c.9315.7452 1.0825 2.1045.3373 3.036-.7452.9315-2.1045 1.0825-3.036.3373l-3.6-2.88c-.5124-.4099-.8107-1.0304-.8107-1.6866 0-.6562.2983-1.2768.8107-1.6867l3.6-2.88c.9315-.7452 2.2908-.5942 3.036.3373ZM11.5132 19.589c-.7453-.9315-.5942-2.2908.3373-3.036l1.4916-1.1933-1.4916-1.1934c-.9315-.7452-1.0826-2.1045-.3373-3.036.7452-.9315 2.1045-1.0825 3.036-.3373l3.6 2.88c.5124.4099.8107 1.0305.8107 1.6867 0 .6562-.2983 1.2767-.8107 1.6866l-3.6 2.88c-.9315.7452-2.2908.5942-3.036-.3373Zm8.6342 1.6178c-.7344-.6449-1.8532-.5862-2.5157.1384-.6708.7337-.6198 1.8722.1139 2.5431l1.2146-1.3285c-1.2146 1.3285-1.2132 1.3298-1.2132 1.3298l.0015.0013.0031.0028.0067.006.0151.0136c.011.0097.0237.0207.0381.0329.0288.0246.0645.0541.1072.0878.0854.0675.1987.1518.3408.2469.2843.1902.6836.4233 1.2028.6493 1.044.4545 2.5479.8696 4.5379.8696 1.9899 0 3.4938-.4151 4.5379-.8696.5191-.226.9184-.4591 1.2027-.6493.1421-.0951.2555-.1794.3408-.2469.0427-.0337.0784-.0632.1072-.0878.0144-.0122.0271-.0232.0381-.0329l.0152-.0136.0066-.006.0031-.0028.0015-.0013s.0014-.0013-1.2131-1.3298l1.2145 1.3285c.7337-.6709.7847-1.8094.1139-2.5431-.6625-.7246-1.7813-.7833-2.5157-.1384l-.0031.0026c-.0143.0113-.0511.0394-.1108.0793-.1192.0798-.3303.2068-.638.3407-.6097.2655-1.6258.5704-3.1008.5704-1.4751 0-2.4912-.3049-3.1009-.5704-.3077-.1339-.5188-.2609-.638-.3407-.0597-.0399-.0964-.068-.1108-.0793l-.0031-.0026Z" clip-rule="evenodd"/>
  <path fill="#F72585" fill-opacity=".2" d="M42.7203 22.5596c0 2.7835-2.2564 5.04-5.04 5.04-2.7835 0-5.04-2.2565-5.04-5.04s2.2565-5.04 5.04-5.04c2.7836 0 5.04 2.2565 5.04 5.04Zm-27.36 0c0 2.7835-2.2565 5.04-5.04 5.04-2.78355 0-5.04003-2.2565-5.04003-5.04s2.25648-5.04 5.04003-5.04c2.7835 0 5.04 2.2565 5.04 5.04Z"/>
  <rect width="46.8" height="46.8" x=".6" y=".6" stroke="#000" stroke-opacity=".2" stroke-width="1.2" rx="19.4"/>
</svg>
