<svg xmlns="http://www.w3.org/2000/svg" width="41" height="40" fill="none"><path fill="#FFC9B9" d="M40.094 20c0 11.046-8.954 20-20 20s-20-8.954-20-20 8.954-20 20-20 20 8.954 20 20Z"/><path fill="#182C61" d="M8.802 10h8.625c.36 0 1.618.829 1.618.829h2.1S22.401 10 22.76 10h8.626c1.243 0 1.59.764 1.616 1.192.43 3.274-1.617 4.99-2.694 5.438H23.3c-.862 0-2.156-2.762-2.695-4.144h-1.021c-.54 1.382-1.833 4.144-2.696 4.144H9.88c-1.077-.448-3.124-2.164-2.694-5.438C7.21 10.764 7.559 10 8.802 10Z"/><path fill="#182C61" fill-rule="evenodd" d="M23.304 21.128a1.5 1.5 0 0 0 2.002-2.235L24.294 20a136.253 136.253 0 0 0 1.01-1.108v-.001l-.003-.003-.006-.005-.012-.01a2.406 2.406 0 0 0-.121-.102 4.442 4.442 0 0 0-.284-.205 6.4 6.4 0 0 0-1.003-.541c-.87-.38-2.123-.725-3.781-.725-1.659 0-2.912.346-3.782.725a6.393 6.393 0 0 0-1.002.54 4.42 4.42 0 0 0-.405.307l-.013.011-.005.005-.003.003h-.001c0 .001-.001.002 1.01 1.109l-1.011-1.107a1.5 1.5 0 0 0 2.001 2.235l.003-.003c.012-.009.042-.032.092-.066.1-.066.275-.172.532-.284.508-.22 1.355-.475 2.584-.475s2.076.254 2.584.475c.256.112.432.218.532.284.05.034.08.057.092.066l.002.003Z" clip-rule="evenodd"/><path fill="#F72585" fill-opacity=".2" d="M35.694 18.8a4.2 4.2 0 1 1-8.4 0 4.2 4.2 0 0 1 8.4 0ZM12.895 18.8a4.2 4.2 0 1 1-8.4 0 4.2 4.2 0 0 1 8.4 0Z"/></svg>