<svg xmlns="http://www.w3.org/2000/svg" fill="none" viewBox="0 0 48 48">
  <rect width="48" height="48" fill="#8FB7F4" rx="20"/>
  <path fill="#182C61" fill-rule="evenodd" d="M27.8529 25.3527c.7344.6449 1.8532.5862 2.5157-.1384.6708-.7337.6198-1.8722-.1139-2.543l-1.2145 1.3284c1.2145-1.3284 1.2131-1.3297 1.2131-1.3297l-.0015-.0014-.0031-.0028-.0067-.006-.0151-.0135c-.011-.0097-.0237-.0208-.0381-.033-.0288-.0246-.0645-.0541-.1072-.0878-.0854-.0674-.1987-.1518-.3408-.2469-.2843-.1902-.6836-.4232-1.2028-.6493-1.044-.4545-2.5479-.8696-4.5378-.8696-1.99 0-3.4939.4151-4.538.8696-.5191.2261-.9184.4591-1.2027.6493-.1421.0951-.2555.1795-.3408.2469-.0427.0337-.0784.0632-.1072.0878-.0144.0122-.0271.0233-.0381.033l-.0152.0135-.0066.006-.0031.0028-.0015.0014s-.0014.0013 1.2132 1.3297l-1.2146-1.3284c-.7337.6708-.7847 1.8093-.1139 2.543.6625.7246 1.7813.7833 2.5157.1384l.0031-.0025c.0143-.0113.0511-.0395.1108-.0794.1192-.0798.3303-.2068.638-.3407.6097-.2655 1.6258-.5704 3.1009-.5704 1.475 0 2.4911.3049 3.1008.5704.3077.1339.5188.2609.638.3407.0597.0399.0964.0681.1108.0794l.0031.0025Zm-15.1838-7.5909c-.5965-1.0332-.2425-2.3542.7906-2.9506l2.9095-1.6798c1.0331-.5965 2.3541-.2425 2.9506.7906.5965 1.0331.2425 2.3541-.7906 2.9506l-2.9095 1.6798c-1.0331.5965-2.3541.2425-2.9506-.7906Zm22.6614-.0006c-.5964 1.0331-1.9174 1.3871-2.9506.7906l-2.9094-1.6797c-1.0331-.5965-1.3871-1.9175-.7906-2.9507.5965-1.0331 1.9175-1.3871 2.9506-.7906l2.9094 1.6798c1.0332.5965 1.3871 1.9175.7906 2.9506Z" clip-rule="evenodd"/>
  <path fill="#F72585" fill-opacity=".2" d="M42.7203 22.5595c0 2.7835-2.2564 5.04-5.04 5.04-2.7835 0-5.04-2.2565-5.04-5.04s2.2565-5.04 5.04-5.04c2.7836 0 5.04 2.2565 5.04 5.04Zm-27.36 0c0 2.7835-2.2565 5.04-5.04 5.04-2.78355 0-5.04003-2.2565-5.04003-5.04s2.25648-5.04 5.04003-5.04c2.7835 0 5.04 2.2565 5.04 5.04Z"/>
  <path fill="#fff" d="M12.0001 25.0005c0-1.0756 1.395-3.3748 2.0577-4.4053.1678-.2603.5168-.2603.6846 0 .6627 1.0305 2.0577 3.3297 2.0577 4.4053 0 1.4416-1.0745 2.5995-2.4 2.5995s-2.4-1.1579-2.4-2.5995Z"/>
  <rect width="46.8" height="46.8" x=".6" y=".6" stroke="#000" stroke-opacity=".2" stroke-width="1.2" rx="19.4"/>
</svg>
