<svg xmlns="http://www.w3.org/2000/svg" width="41" height="40" fill="none"><path fill="#8FB7F4" d="M40.094 20c0 11.046-8.954 20-20 20s-20-8.954-20-20 8.954-20 20-20 20 8.954 20 20Z"/><path fill="#182C61" fill-rule="evenodd" d="M23.305 21.127a1.5 1.5 0 0 0 2.001-2.234L24.294 20a140.145 140.145 0 0 0 1.011-1.108l-.001-.002-.003-.002-.005-.005-.013-.011a1.862 1.862 0 0 0-.12-.1 4.448 4.448 0 0 0-.285-.206 6.382 6.382 0 0 0-1.002-.541c-.87-.38-2.124-.725-3.782-.725s-2.911.346-3.782.724a6.385 6.385 0 0 0-1.002.542 4.442 4.442 0 0 0-.405.306l-.012.011-.006.005-.003.002v.002c-.001 0-.002 0 1.01 1.108l-1.012-1.107a1.5 1.5 0 0 0 2.002 2.234l.002-.002a1.46 1.46 0 0 1 .092-.066c.1-.066.276-.172.532-.284.508-.221 1.355-.475 2.584-.475 1.23 0 2.076.254 2.584.475.257.112.432.218.532.284.05.033.08.057.092.066l.003.002ZM10.652 14.802a1.8 1.8 0 0 1 .659-2.46l2.424-1.4a1.8 1.8 0 1 1 1.8 3.118l-2.425 1.4a1.8 1.8 0 0 1-2.458-.659ZM29.536 14.801a1.8 1.8 0 0 1-2.459.659l-2.424-1.4a1.8 1.8 0 1 1 1.8-3.118l2.424 1.4a1.8 1.8 0 0 1 .66 2.459Z" clip-rule="evenodd"/><path fill="#F72585" fill-opacity=".2" d="M35.694 18.8a4.2 4.2 0 1 1-8.4 0 4.2 4.2 0 0 1 8.4 0ZM12.894 18.8a4.2 4.2 0 1 1-8.4 0 4.2 4.2 0 0 1 8.4 0Z"/><path fill="#fff" d="M10.094 20.834c0-.896 1.163-2.813 1.715-3.671a.331.331 0 0 1 .57 0c.553.858 1.715 2.774 1.715 3.67 0 1.202-.895 2.167-2 2.167-1.104 0-2-.965-2-2.166Z"/></svg>