<svg xmlns="http://www.w3.org/2000/svg" width="41" height="40" fill="none"><path fill="#CAE7F9" d="M40.094 20c0 11.046-8.954 20-20 20s-20-8.954-20-20 8.954-20 20-20 20 8.954 20 20Z"/><path fill="#182C61" d="M20.094 25.646c-1.21 0-2.329.29-3.241-.231-1.403-.8-1.853-2.107-1.853-3.582 0-2.435 2.025-3.933 5.094-3.933 3.07 0 5.094 1.498 5.094 3.933 0 1.475-.45 2.781-1.852 3.582-.912.52-2.032.231-3.242.231Z"/><path fill="#182C61" fill-rule="evenodd" d="M12.994 8c1.16 0 2.1.863 2.1 1.929v5.142c0 1.066-.94 1.929-2.1 1.929-1.16 0-2.1-.863-2.1-1.929V9.93c0-1.066.94-1.929 2.1-1.929ZM27.194 8c1.16 0 2.1.863 2.1 1.929v5.142c0 1.066-.94 1.929-2.1 1.929-1.16 0-2.1-.863-2.1-1.929V9.93c0-1.066.94-1.929 2.1-1.929Z" clip-rule="evenodd"/><path fill="#F72585" fill-opacity=".2" d="M35.694 18.8a4.2 4.2 0 1 1-8.4 0 4.2 4.2 0 0 1 8.4 0ZM12.894 18.8a4.2 4.2 0 1 1-8.4 0 4.2 4.2 0 0 1 8.4 0Z"/></svg>