<svg xmlns="http://www.w3.org/2000/svg" fill="none" viewBox="0 0 48 48">
  <rect width="48" height="48" fill="#F48B9B" rx="20"/>
  <path fill="#182C61" fill-rule="evenodd" d="M28.2129 25.3526c.7344.6449 1.8532.5862 2.5158-.1384.6707-.7337.6198-1.8722-.1139-2.543l-1.2146 1.3285c1.2146-1.3285 1.2131-1.3298 1.2131-1.3298l-.0015-.0014-.003-.0028-.0067-.006-.0151-.0135c-.011-.0097-.0237-.0207-.0381-.033-.0288-.0245-.0645-.054-.1072-.0877-.0854-.0675-.1987-.1519-.3409-.2469-.2843-.1902-.6835-.4233-1.2027-.6493-1.044-.4546-2.548-.8696-4.5379-.8696-1.9899 0-3.4939.415-4.5379.8696-.5192.226-.9184.4591-1.2027.6493-.1421.095-.2555.1794-.3409.2469-.0427.0337-.0784.0632-.1072.0877-.0144.0123-.027.0233-.0381.033l-.0152.0135-.0066.006-.0031.0028-.0014.0014s-.0015.0013 1.2131 1.3298l-1.2146-1.3285c-.7336.6708-.7846 1.8093-.1139 2.543.6626.7246 1.7814.7833 2.5157.1384l.0032-.0025c.0142-.0113.051-.0395.1107-.0794.1193-.0797.3304-.2067.6381-.3407.6097-.2654 1.6257-.5703 3.1008-.5703s2.4911.3049 3.1008.5703c.3078.134.5189.261.6381.3407.0597.0399.0964.0681.1107.0794l.0031.0025ZM12.6694 13.9203c.5964-1.0331 1.9174-1.3871 2.9506-.7906l2.9094 1.6797c1.0332.5965 1.3871 1.9175.7906 2.9507-.5965 1.0331-1.9174 1.3871-2.9506.7906L13.46 16.8709c-1.0332-.5965-1.3871-1.9175-.7906-2.9506Zm22.6617-.0006c.5965 1.0332.2425 2.3542-.7906 2.9506l-2.9095 1.6798c-1.0331.5965-2.3541.2425-2.9506-.7906-.5965-1.0331-.2425-2.3541.7906-2.9506l2.9095-1.6798c1.0331-.5965 2.3541-.2425 2.9506.7906Z" clip-rule="evenodd"/>
  <path fill="#F72585" fill-opacity=".2" d="M42.7203 22.5594c0 2.7835-2.2564 5.04-5.04 5.04-2.7835 0-5.04-2.2565-5.04-5.04s2.2565-5.04 5.04-5.04c2.7836 0 5.04 2.2565 5.04 5.04Zm-27.36 0c0 2.7835-2.2565 5.04-5.04 5.04-2.78355 0-5.04003-2.2565-5.04003-5.04s2.25648-5.04 5.04003-5.04c2.7835 0 5.04 2.2565 5.04 5.04Z"/>
  <rect width="46.8" height="46.8" x=".6" y=".6" stroke="#000" stroke-opacity=".2" stroke-width="1.2" rx="19.4"/>
</svg>
