<svg xmlns="http://www.w3.org/2000/svg" fill="none" viewBox="0 0 48 48">
  <rect width="48" height="48" fill="#E9E0F9" rx="20"/>
  <path fill="#A0C4FA" d="M48 20C48 8.95435 39.0459 0 28 0h-8C8.9541 0 0 8.95435 0 20v5.6758c6.36914-5.7005 14.7793-9.1668 24-9.1668s17.6309 3.4663 24 9.1668V20Z"/>
  <path fill="#182C61" fill-rule="evenodd" d="M27.8437 25.3531c.7327.6449 1.8489.5862 2.5099-.1384.6691-.7337.6183-1.8722-.1137-2.5431l-1.2117 1.3285c1.2117-1.3285 1.2103-1.3298 1.2103-1.3298l-.0015-.0013-.003-.0028-.0067-.006-.0151-.0135c-.011-.0098-.0236-.0208-.038-.033-.0287-.0246-.0644-.0541-.1069-.0878-.0852-.0675-.1983-.1518-.3401-.2469-.2837-.1902-.682-.4233-1.1999-.6493-1.0416-.4545-2.542-.8696-4.5273-.8696-1.9852 0-3.4856.4151-4.5272.8696-.5179.226-.9162.4591-1.1999.6493-.1418.0951-.2549.1794-.3401.2469-.0426.0337-.0782.0632-.1069.0878-.0144.0122-.027.0232-.038.033l-.0152.0135-.0066.006-.0031.0028-.0014.0013s-.0014.0013 1.2103 1.3298l-1.2117-1.3285c-.732.6709-.7829 1.8094-.1137 2.5431.661.7246 1.7772.7833 2.5098.1384l.0032-.0026c.0142-.0113.0509-.0394.1104-.0793.119-.0798.3296-.2068.6366-.3407.6083-.2655 1.6219-.5704 3.0935-.5704 1.4716 0 2.4853.3049 3.0936.5704.307.1339.5176.2609.6366.3407.0595.0399.0961.068.1104.0793l.0031.0026ZM15.5002 9.6001c1.3885 0 2.514 1.0362 2.514 2.3144v6.1712c0 1.2782-1.1255 2.3144-2.514 2.3144-1.3886 0-2.5141-1.0362-2.5141-2.3144v-6.1712c0-1.2782 1.1255-2.3144 2.5141-2.3144Zm16.9999 0c1.3885 0 2.5141 1.0362 2.5141 2.3144v6.1712c0 1.2782-1.1256 2.3144-2.5141 2.3144s-2.5141-1.0362-2.5141-2.3144v-6.1712c0-1.2782 1.1256-2.3144 2.5141-2.3144Z" clip-rule="evenodd"/>
  <path fill="#F72585" fill-opacity=".2" d="M42.6761 22.5596c0 2.7835-2.2512 5.04-5.0282 5.04s-5.0281-2.2565-5.0281-5.04 2.2511-5.04 5.0281-5.04 5.0282 2.2565 5.0282 5.04Zm-27.2955 0c0 2.7835-2.2512 5.04-5.0282 5.04s-5.02818-2.2565-5.02818-5.04 2.25118-5.04 5.02818-5.04c2.777 0 5.0282 2.2565 5.0282 5.04Z"/>
  <rect width="46.8" height="46.8" x=".6" y=".6" stroke="#000" stroke-opacity=".2" stroke-width="1.2" rx="19.4"/>
</svg>
