<svg xmlns="http://www.w3.org/2000/svg" fill="none" viewBox="0 0 48 48">
  <rect width="48" height="48" fill="#F7D6E0" rx="20"/>
  <path fill="#F72585" fill-opacity=".2" d="M42.7203 22.5596c0 2.7835-2.2564 5.04-5.04 5.04-2.7835 0-5.04-2.2565-5.04-5.04s2.2565-5.04 5.04-5.04c2.7836 0 5.04 2.2565 5.04 5.04Zm-27.36 0c0 2.7835-2.2565 5.04-5.04 5.04-2.78355 0-5.04003-2.2565-5.04003-5.04s2.25648-5.04 5.04003-5.04c2.7835 0 5.04 2.2565 5.04 5.04Z"/>
  <path fill="#182C61" fill-rule="evenodd" d="M11.6004 15.5536c-.3338-1.1463.4055-2.3245 1.6514-2.6317l3.0079-.7414c1.2459-.3072 2.5265.373 2.8604 1.5193.3338 1.1463-.4056 2.3245-1.6515 2.6316l-3.0079.7415c-1.2459.3072-2.5265-.373-2.8603-1.5193Zm17.2799-1.8538c.3338-1.1463 1.6144-1.8265 2.8603-1.5193l3.0079.7414c1.2459.3072 1.9853 1.4854 1.6514 2.6317-.3338 1.1463-1.6144 1.8265-2.8603 1.5193l-3.0079-.7415c-1.2459-.3071-1.9853-1.4853-1.6514-2.6316Zm-8.7329 7.507c-.7344-.6449-1.8532-.5862-2.5157.1384-.6708.7337-.6198 1.8722.1139 2.5431l1.2146-1.3285c-1.2146 1.3285-1.2132 1.3298-1.2132 1.3298l.0015.0013.0031.0028.0067.006.0151.0136c.011.0097.0237.0207.0381.0329.0288.0246.0645.0541.1072.0878.0854.0675.1987.1518.3408.2469.2843.1902.6836.4233 1.2028.6493 1.044.4545 2.5479.8696 4.5379.8696 1.9899 0 3.4938-.4151 4.5379-.8696.5191-.226.9184-.4591 1.2027-.6493.1421-.0951.2555-.1794.3408-.2469.0427-.0337.0784-.0632.1072-.0878.0144-.0122.0271-.0232.0381-.0329l.0152-.0136.0066-.006.0031-.0028.0015-.0013s.0014-.0013-1.2131-1.3298l1.2145 1.3285c.7337-.6709.7847-1.8094.1139-2.5431-.6625-.7246-1.7813-.7833-2.5157-.1384l-.0031.0026c-.0143.0113-.0511.0394-.1108.0793-.1192.0798-.3303.2068-.638.3407-.6097.2655-1.6258.5704-3.1008.5704-1.4751 0-2.4912-.3049-3.1009-.5704-.3077-.1339-.5188-.2609-.638-.3407-.0597-.0399-.0964-.068-.1108-.0793l-.0031-.0026Z" clip-rule="evenodd"/>
  <rect width="46.8" height="46.8" x=".6" y=".6" stroke="#000" stroke-opacity=".2" stroke-width="1.2" rx="19.4"/>
</svg>
