<svg xmlns="http://www.w3.org/2000/svg" fill="none" viewBox="0 0 48 48">
  <rect width="48" height="48" fill="#FFC9B9" rx="20"/>
  <path fill="#182C61" d="M10.4487 12h10.3509c.4313 0 1.9408.9945 1.9408.9945h2.5194S26.7693 12 27.2006 12h10.3509c1.491 0 1.9081.9171 1.9389 1.4303.516 3.9289-1.9402 5.9876-3.2328 6.5258h-8.4101c-1.0351 0-2.5877-3.315-3.2346-4.9725h-1.2256c-.6469 1.6575-2.1995 4.9725-3.2346 4.9725h-8.4101c-1.2926-.5382-3.74881-2.5969-3.23277-6.5258C8.5406 12.9171 8.95775 12 10.4487 12Z"/>
  <path fill="#182C61" fill-rule="evenodd" d="M27.8522 25.353c.7344.6449 1.8532.5862 2.5157-.1384.6708-.7337.6198-1.8722-.1139-2.5431L29.0395 24c1.2145-1.3285 1.2131-1.3298 1.2131-1.3298l-.0015-.0013-.003-.0028-.0067-.006-.0152-.0135c-.011-.0098-.0237-.0208-.0381-.033-.0288-.0246-.0645-.0541-.1072-.0878-.0854-.0674-.1987-.1518-.3408-.2469-.2843-.1902-.6836-.4233-1.2028-.6493-1.044-.4545-2.5479-.8696-4.5378-.8696-1.99 0-3.4939.4151-4.538.8696-.5191.226-.9183.4591-1.2027.6493-.1421.0951-.2555.1795-.3408.2469-.0427.0337-.0784.0632-.1072.0878-.0144.0122-.0271.0232-.0381.033l-.0152.0135-.0066.006-.0031.0028-.0015.0013s-.0014.0013 1.2132 1.3298l-1.2146-1.3285c-.7337.6709-.7847 1.8094-.1139 2.5431.6625.7246 1.7813.7833 2.5157.1384l.0031-.0026c.0143-.0113.0511-.0394.1108-.0793.1192-.0798.3303-.2068.638-.3407.6097-.2655 1.6258-.5704 3.1009-.5704 1.475 0 2.4911.3049 3.1008.5704.3077.1339.5188.2609.638.3407.0597.0399.0965.068.1108.0793l.0031.0026Z" clip-rule="evenodd"/>
  <path fill="#F72585" fill-opacity=".2" d="M42.72 22.5595c0 2.7836-2.2564 5.04-5.04 5.04-2.7835 0-5.04-2.2564-5.04-5.04 0-2.7835 2.2565-5.04 5.04-5.04 2.7836 0 5.04 2.2565 5.04 5.04Zm-27.3597 0c0 2.7836-2.2565 5.04-5.04 5.04-2.78355 0-5.04003-2.2564-5.04003-5.04 0-2.7835 2.25648-5.04 5.04003-5.04 2.7835 0 5.04 2.2565 5.04 5.04Z"/>
  <rect width="46.8" height="46.8" x=".6" y=".6" stroke="#000" stroke-opacity=".2" stroke-width="1.2" rx="19.4"/>
</svg>
