<svg xmlns="http://www.w3.org/2000/svg" fill="none" viewBox="0 0 48 48">
  <rect width="48" height="48" fill="#CAE7F9" rx="20"/>
  <path fill="#182C61" d="M24.0003 30.7754c-1.4517 0-2.7951.3471-3.89-.2778-1.6828-.9605-2.2229-2.5277-2.2229-4.298 0-2.9221 2.4299-4.719 6.1129-4.719s6.113 1.7969 6.113 4.719c0 1.7703-.5401 3.3375-2.2229 4.298-1.0949.6249-2.4383.2778-3.8901.2778Z"/>
  <path fill="#182C61" fill-rule="evenodd" d="M15.4802 9.6001c1.3918 0 2.52 1.0362 2.52 2.3144v6.1712c0 1.2782-1.1282 2.3144-2.52 2.3144s-2.52-1.0362-2.52-2.3144v-6.1712c0-1.2782 1.1282-2.3144 2.52-2.3144Zm17.0399 0c1.3918 0 2.52 1.0362 2.52 2.3144v6.1712c0 1.2782-1.1282 2.3144-2.52 2.3144s-2.52-1.0362-2.52-2.3144v-6.1712c0-1.2782 1.1282-2.3144 2.52-2.3144Z" clip-rule="evenodd"/>
  <path fill="#F72585" fill-opacity=".2" d="M42.7203 22.5596c0 2.7835-2.2564 5.04-5.04 5.04-2.7835 0-5.04-2.2565-5.04-5.04s2.2565-5.04 5.04-5.04c2.7836 0 5.04 2.2565 5.04 5.04Zm-27.36 0c0 2.7835-2.2565 5.04-5.04 5.04-2.78355 0-5.04003-2.2565-5.04003-5.04s2.25648-5.04 5.04003-5.04c2.7835 0 5.04 2.2565 5.04 5.04Z"/>
  <rect width="46.8" height="46.8" x=".6" y=".6" stroke="#000" stroke-opacity=".2" stroke-width="1.2" rx="19.4"/>
</svg>
